<mxfile host="65bd71144e">
    <diagram id="R2lEEEUBdFMjLlhIrx00" name="Page-1">
        <mxGraphModel dx="2325" dy="1923" grid="1" gridSize="10" guides="1" tooltips="1" connect="1" arrows="1" fold="1" page="1" pageScale="1" pageWidth="850" pageHeight="1100" math="0" shadow="0" extFonts="Permanent Marker^https://fonts.googleapis.com/css?family=Permanent+Marker">
            <root>
                <mxCell id="0"/>
                <mxCell id="1" parent="0"/>
                <mxCell id="ibcruFRzmaZoAH3_3LqD-2" value="USUARIO" style="rounded=1;whiteSpace=wrap;html=1;" parent="1" vertex="1">
                    <mxGeometry x="880" y="157.5" width="120" height="60" as="geometry"/>
                </mxCell>
                <mxCell id="ibcruFRzmaZoAH3_3LqD-3" value="PUNTO TURISTICO" style="rounded=1;whiteSpace=wrap;html=1;" parent="1" vertex="1">
                    <mxGeometry x="-330" y="430" width="120" height="60" as="geometry"/>
                </mxCell>
                <mxCell id="ibcruFRzmaZoAH3_3LqD-28" style="rounded=0;orthogonalLoop=1;jettySize=auto;html=1;endArrow=none;startFill=0;" parent="1" source="ibcruFRzmaZoAH3_3LqD-9" target="ibcruFRzmaZoAH3_3LqD-2" edge="1">
                    <mxGeometry relative="1" as="geometry"/>
                </mxCell>
                <mxCell id="ibcruFRzmaZoAH3_3LqD-9" value="APELLIDO" style="ellipse;whiteSpace=wrap;html=1;" parent="1" vertex="1">
                    <mxGeometry x="870" y="40" width="70" height="40" as="geometry"/>
                </mxCell>
                <mxCell id="ibcruFRzmaZoAH3_3LqD-27" style="rounded=0;orthogonalLoop=1;jettySize=auto;html=1;endArrow=none;startFill=0;" parent="1" source="ibcruFRzmaZoAH3_3LqD-10" target="ibcruFRzmaZoAH3_3LqD-2" edge="1">
                    <mxGeometry relative="1" as="geometry"/>
                </mxCell>
                <mxCell id="ibcruFRzmaZoAH3_3LqD-10" value="&lt;span&gt;CORREO&lt;/span&gt;" style="ellipse;whiteSpace=wrap;html=1;fontStyle=0" parent="1" vertex="1">
                    <mxGeometry x="1000" y="80" width="70" height="40" as="geometry"/>
                </mxCell>
                <mxCell id="ibcruFRzmaZoAH3_3LqD-25" style="rounded=0;orthogonalLoop=1;jettySize=auto;html=1;endArrow=none;startFill=0;" parent="1" source="ibcruFRzmaZoAH3_3LqD-12" target="ibcruFRzmaZoAH3_3LqD-2" edge="1">
                    <mxGeometry relative="1" as="geometry"/>
                </mxCell>
                <mxCell id="ibcruFRzmaZoAH3_3LqD-12" value="FECHA DE NACIMIENTO" style="ellipse;whiteSpace=wrap;html=1;" parent="1" vertex="1">
                    <mxGeometry x="940" y="30" width="110" height="50" as="geometry"/>
                </mxCell>
                <mxCell id="ibcruFRzmaZoAH3_3LqD-29" style="rounded=0;orthogonalLoop=1;jettySize=auto;html=1;endArrow=none;startFill=0;" parent="1" source="ibcruFRzmaZoAH3_3LqD-13" target="ibcruFRzmaZoAH3_3LqD-2" edge="1">
                    <mxGeometry relative="1" as="geometry"/>
                </mxCell>
                <mxCell id="ibcruFRzmaZoAH3_3LqD-13" value="NOMBRE" style="ellipse;whiteSpace=wrap;html=1;" parent="1" vertex="1">
                    <mxGeometry x="800" y="52.5" width="70" height="40" as="geometry"/>
                </mxCell>
                <mxCell id="ibcruFRzmaZoAH3_3LqD-18" value="ESTADO" style="ellipse;whiteSpace=wrap;html=1;" parent="1" vertex="1">
                    <mxGeometry x="-530" y="650" width="70" height="40" as="geometry"/>
                </mxCell>
                <mxCell id="ibcruFRzmaZoAH3_3LqD-32" style="rounded=0;orthogonalLoop=1;jettySize=auto;html=1;endArrow=none;startFill=0;" parent="1" source="ibcruFRzmaZoAH3_3LqD-19" target="ibcruFRzmaZoAH3_3LqD-3" edge="1">
                    <mxGeometry relative="1" as="geometry"/>
                </mxCell>
                <mxCell id="ibcruFRzmaZoAH3_3LqD-19" value="NOMBRE" style="ellipse;whiteSpace=wrap;html=1;" parent="1" vertex="1">
                    <mxGeometry x="-580" y="590" width="70" height="40" as="geometry"/>
                </mxCell>
                <mxCell id="ibcruFRzmaZoAH3_3LqD-30" style="rounded=0;orthogonalLoop=1;jettySize=auto;html=1;endArrow=none;startFill=0;" parent="1" source="ibcruFRzmaZoAH3_3LqD-20" target="ibcruFRzmaZoAH3_3LqD-2" edge="1">
                    <mxGeometry relative="1" as="geometry"/>
                </mxCell>
                <mxCell id="ibcruFRzmaZoAH3_3LqD-20" value="ROLE" style="ellipse;whiteSpace=wrap;html=1;" parent="1" vertex="1">
                    <mxGeometry x="740" y="80" width="70" height="40" as="geometry"/>
                </mxCell>
                <mxCell id="ibcruFRzmaZoAH3_3LqD-31" style="rounded=0;orthogonalLoop=1;jettySize=auto;html=1;endArrow=none;startFill=0;" parent="1" source="ibcruFRzmaZoAH3_3LqD-21" target="ibcruFRzmaZoAH3_3LqD-3" edge="1">
                    <mxGeometry relative="1" as="geometry"/>
                </mxCell>
                <mxCell id="ibcruFRzmaZoAH3_3LqD-21" value="&lt;span&gt;UBICACION&lt;/span&gt;" style="ellipse;whiteSpace=wrap;html=1;fontStyle=0" parent="1" vertex="1">
                    <mxGeometry x="-540" y="505" width="80" height="50" as="geometry"/>
                </mxCell>
                <mxCell id="ibcruFRzmaZoAH3_3LqD-33" style="rounded=0;orthogonalLoop=1;jettySize=auto;html=1;entryX=0.25;entryY=1;entryDx=0;entryDy=0;endArrow=none;startFill=0;" parent="1" source="ibcruFRzmaZoAH3_3LqD-18" target="ibcruFRzmaZoAH3_3LqD-3" edge="1">
                    <mxGeometry relative="1" as="geometry"/>
                </mxCell>
                <mxCell id="ibcruFRzmaZoAH3_3LqD-41" value="" style="group" parent="1" vertex="1" connectable="0">
                    <mxGeometry x="895" y="257.5" width="90" height="60" as="geometry"/>
                </mxCell>
                <mxCell id="ibcruFRzmaZoAH3_3LqD-40" value="" style="rounded=0;whiteSpace=wrap;html=1;movable=1;resizable=1;rotatable=1;deletable=1;editable=1;locked=0;connectable=1;" parent="ibcruFRzmaZoAH3_3LqD-41" vertex="1">
                    <mxGeometry width="90" height="60" as="geometry"/>
                </mxCell>
                <mxCell id="ibcruFRzmaZoAH3_3LqD-39" value="VISITA" style="rhombus;whiteSpace=wrap;html=1;movable=1;resizable=1;rotatable=1;deletable=1;editable=1;locked=0;connectable=1;" parent="ibcruFRzmaZoAH3_3LqD-41" vertex="1">
                    <mxGeometry x="2.5" width="85" height="60" as="geometry"/>
                </mxCell>
                <mxCell id="ibcruFRzmaZoAH3_3LqD-42" style="edgeStyle=orthogonalEdgeStyle;rounded=0;orthogonalLoop=1;jettySize=auto;html=1;endArrow=none;startFill=0;" parent="1" source="ibcruFRzmaZoAH3_3LqD-40" target="ibcruFRzmaZoAH3_3LqD-2" edge="1">
                    <mxGeometry relative="1" as="geometry"/>
                </mxCell>
                <mxCell id="ibcruFRzmaZoAH3_3LqD-43" style="edgeStyle=orthogonalEdgeStyle;rounded=0;orthogonalLoop=1;jettySize=auto;html=1;endArrow=none;startFill=0;" parent="1" source="ibcruFRzmaZoAH3_3LqD-40" edge="1">
                    <mxGeometry relative="1" as="geometry">
                        <mxPoint x="670" y="340" as="targetPoint"/>
                        <Array as="points"/>
                    </mxGeometry>
                </mxCell>
                <mxCell id="ibcruFRzmaZoAH3_3LqD-56" value="N" style="text;html=1;align=center;verticalAlign=middle;resizable=0;points=[];autosize=1;strokeColor=none;fillColor=none;" parent="1" vertex="1">
                    <mxGeometry x="910" y="217.5" width="30" height="30" as="geometry"/>
                </mxCell>
                <mxCell id="ibcruFRzmaZoAH3_3LqD-57" value="M" style="text;html=1;align=center;verticalAlign=middle;resizable=0;points=[];autosize=1;strokeColor=none;fillColor=none;" parent="1" vertex="1">
                    <mxGeometry x="620" y="317.5" width="30" height="30" as="geometry"/>
                </mxCell>
                <mxCell id="ibcruFRzmaZoAH3_3LqD-58" value="IMAGEN" style="rounded=1;whiteSpace=wrap;html=1;" parent="1" vertex="1">
                    <mxGeometry x="277" y="420" width="120" height="60" as="geometry"/>
                </mxCell>
                <mxCell id="ibcruFRzmaZoAH3_3LqD-59" style="rounded=0;orthogonalLoop=1;jettySize=auto;html=1;endArrow=none;startFill=0;" parent="1" source="ibcruFRzmaZoAH3_3LqD-60" target="ibcruFRzmaZoAH3_3LqD-58" edge="1">
                    <mxGeometry relative="1" as="geometry"/>
                </mxCell>
                <mxCell id="ibcruFRzmaZoAH3_3LqD-60" value="ESTADO" style="ellipse;whiteSpace=wrap;html=1;" parent="1" vertex="1">
                    <mxGeometry x="430" y="470" width="70" height="40" as="geometry"/>
                </mxCell>
                <mxCell id="ibcruFRzmaZoAH3_3LqD-61" style="rounded=0;orthogonalLoop=1;jettySize=auto;html=1;endArrow=none;startFill=0;" parent="1" source="ibcruFRzmaZoAH3_3LqD-62" target="ibcruFRzmaZoAH3_3LqD-58" edge="1">
                    <mxGeometry relative="1" as="geometry"/>
                </mxCell>
                <mxCell id="ibcruFRzmaZoAH3_3LqD-62" value="URL" style="ellipse;whiteSpace=wrap;html=1;" parent="1" vertex="1">
                    <mxGeometry x="302" y="558.75" width="70" height="40" as="geometry"/>
                </mxCell>
                <mxCell id="ibcruFRzmaZoAH3_3LqD-63" style="rounded=0;orthogonalLoop=1;jettySize=auto;html=1;endArrow=none;startFill=0;" parent="1" source="ibcruFRzmaZoAH3_3LqD-64" target="ibcruFRzmaZoAH3_3LqD-58" edge="1">
                    <mxGeometry relative="1" as="geometry"/>
                </mxCell>
                <mxCell id="ibcruFRzmaZoAH3_3LqD-64" value="FECHA_SUBIDA" style="ellipse;whiteSpace=wrap;html=1;" parent="1" vertex="1">
                    <mxGeometry x="410" y="548.75" width="110" height="50" as="geometry"/>
                </mxCell>
                <mxCell id="ibcruFRzmaZoAH3_3LqD-65" style="rounded=0;orthogonalLoop=1;jettySize=auto;html=1;endArrow=none;startFill=0;" parent="1" source="ibcruFRzmaZoAH3_3LqD-66" target="ibcruFRzmaZoAH3_3LqD-58" edge="1">
                    <mxGeometry relative="1" as="geometry"/>
                </mxCell>
                <mxCell id="ibcruFRzmaZoAH3_3LqD-66" value="&lt;u&gt;IMG_ID&lt;/u&gt;" style="ellipse;whiteSpace=wrap;html=1;" parent="1" vertex="1">
                    <mxGeometry x="160" y="543.75" width="110" height="55" as="geometry"/>
                </mxCell>
                <mxCell id="ibcruFRzmaZoAH3_3LqD-68" value="M" style="text;html=1;align=center;verticalAlign=middle;resizable=0;points=[];autosize=1;strokeColor=none;fillColor=none;" parent="1" vertex="1">
                    <mxGeometry x="180" y="410" width="30" height="30" as="geometry"/>
                </mxCell>
                <mxCell id="ibcruFRzmaZoAH3_3LqD-72" style="edgeStyle=orthogonalEdgeStyle;rounded=0;orthogonalLoop=1;jettySize=auto;html=1;endArrow=none;startFill=0;exitX=0;exitY=0.5;exitDx=0;exitDy=0;" parent="1" source="ibcruFRzmaZoAH3_3LqD-73" target="ibcruFRzmaZoAH3_3LqD-3" edge="1">
                    <mxGeometry relative="1" as="geometry">
                        <mxPoint x="-200" y="474.9966666666666" as="targetPoint"/>
                        <mxPoint x="-10" y="434.93" as="sourcePoint"/>
                        <Array as="points">
                            <mxPoint x="-160" y="450"/>
                            <mxPoint x="-160" y="450"/>
                        </Array>
                    </mxGeometry>
                </mxCell>
                <mxCell id="ibcruFRzmaZoAH3_3LqD-73" value="TIENE" style="rhombus;whiteSpace=wrap;html=1;" parent="1" vertex="1">
                    <mxGeometry x="-60" y="410" width="80" height="80" as="geometry"/>
                </mxCell>
                <mxCell id="ibcruFRzmaZoAH3_3LqD-77" style="rounded=0;orthogonalLoop=1;jettySize=auto;html=1;endArrow=none;startFill=0;entryX=0;entryY=0.5;entryDx=0;entryDy=0;" parent="1" source="ibcruFRzmaZoAH3_3LqD-78" target="ibcruFRzmaZoAH3_3LqD-2" edge="1">
                    <mxGeometry relative="1" as="geometry">
                        <mxPoint x="846.5" y="226.25" as="targetPoint"/>
                    </mxGeometry>
                </mxCell>
                <mxCell id="ibcruFRzmaZoAH3_3LqD-78" value="&lt;u&gt;USER_ID&lt;/u&gt;" style="ellipse;whiteSpace=wrap;html=1;" parent="1" vertex="1">
                    <mxGeometry x="710" y="147.5" width="70" height="40" as="geometry"/>
                </mxCell>
                <mxCell id="ibcruFRzmaZoAH3_3LqD-82" style="rounded=0;orthogonalLoop=1;jettySize=auto;html=1;endArrow=none;startFill=0;" parent="1" source="ibcruFRzmaZoAH3_3LqD-79" target="ibcruFRzmaZoAH3_3LqD-3" edge="1">
                    <mxGeometry relative="1" as="geometry"/>
                </mxCell>
                <mxCell id="ibcruFRzmaZoAH3_3LqD-79" value="PAIS" style="ellipse;whiteSpace=wrap;html=1;" parent="1" vertex="1">
                    <mxGeometry x="-200" y="590" width="70" height="40" as="geometry"/>
                </mxCell>
                <mxCell id="ibcruFRzmaZoAH3_3LqD-83" style="rounded=0;orthogonalLoop=1;jettySize=auto;html=1;endArrow=none;startFill=0;" parent="1" source="ibcruFRzmaZoAH3_3LqD-80" target="ibcruFRzmaZoAH3_3LqD-3" edge="1">
                    <mxGeometry relative="1" as="geometry"/>
                </mxCell>
                <mxCell id="ibcruFRzmaZoAH3_3LqD-80" value="CIUDAD" style="ellipse;whiteSpace=wrap;html=1;" parent="1" vertex="1">
                    <mxGeometry x="-210" y="695" width="75" height="40" as="geometry"/>
                </mxCell>
                <mxCell id="ibcruFRzmaZoAH3_3LqD-84" value="LATITUD" style="ellipse;whiteSpace=wrap;html=1;" parent="1" vertex="1">
                    <mxGeometry x="-710" y="580" width="120" height="50" as="geometry"/>
                </mxCell>
                <mxCell id="ibcruFRzmaZoAH3_3LqD-86" style="rounded=0;orthogonalLoop=1;jettySize=auto;html=1;endArrow=none;startFill=0;" parent="1" source="ibcruFRzmaZoAH3_3LqD-85" target="ibcruFRzmaZoAH3_3LqD-21" edge="1">
                    <mxGeometry relative="1" as="geometry"/>
                </mxCell>
                <mxCell id="ibcruFRzmaZoAH3_3LqD-85" value="LONGITUD" style="ellipse;whiteSpace=wrap;html=1;" parent="1" vertex="1">
                    <mxGeometry x="-720" y="486.25" width="120" height="50" as="geometry"/>
                </mxCell>
                <mxCell id="ibcruFRzmaZoAH3_3LqD-87" style="rounded=0;orthogonalLoop=1;jettySize=auto;html=1;entryX=0.036;entryY=0.716;entryDx=0;entryDy=0;entryPerimeter=0;endArrow=none;startFill=0;" parent="1" source="ibcruFRzmaZoAH3_3LqD-84" target="ibcruFRzmaZoAH3_3LqD-21" edge="1">
                    <mxGeometry relative="1" as="geometry"/>
                </mxCell>
                <mxCell id="ibcruFRzmaZoAH3_3LqD-89" style="rounded=0;orthogonalLoop=1;jettySize=auto;html=1;endArrow=none;startFill=0;" parent="1" source="ibcruFRzmaZoAH3_3LqD-88" target="ibcruFRzmaZoAH3_3LqD-3" edge="1">
                    <mxGeometry relative="1" as="geometry"/>
                </mxCell>
                <mxCell id="ibcruFRzmaZoAH3_3LqD-88" value="LOCALIDAD" style="ellipse;whiteSpace=wrap;html=1;" parent="1" vertex="1">
                    <mxGeometry x="-130" y="600" width="90" height="40" as="geometry"/>
                </mxCell>
                <mxCell id="ibcruFRzmaZoAH3_3LqD-91" style="rounded=0;orthogonalLoop=1;jettySize=auto;html=1;endArrow=none;startFill=0;" parent="1" source="ibcruFRzmaZoAH3_3LqD-90" target="ibcruFRzmaZoAH3_3LqD-3" edge="1">
                    <mxGeometry relative="1" as="geometry"/>
                </mxCell>
                <mxCell id="ibcruFRzmaZoAH3_3LqD-90" value="LUAR_ID" style="ellipse;whiteSpace=wrap;html=1;fontStyle=4" parent="1" vertex="1">
                    <mxGeometry x="-130" y="555" width="90" height="30" as="geometry"/>
                </mxCell>
                <mxCell id="ibcruFRzmaZoAH3_3LqD-92" value="1" style="text;html=1;align=center;verticalAlign=middle;resizable=0;points=[];autosize=1;strokeColor=none;fillColor=none;" parent="1" vertex="1">
                    <mxGeometry x="-200" y="405" width="30" height="30" as="geometry"/>
                </mxCell>
                <mxCell id="ibcruFRzmaZoAH3_3LqD-103" value="1" style="text;html=1;align=center;verticalAlign=middle;resizable=0;points=[];autosize=1;strokeColor=none;fillColor=none;" parent="1" vertex="1">
                    <mxGeometry x="855" y="257.5" width="30" height="30" as="geometry"/>
                </mxCell>
                <mxCell id="ibcruFRzmaZoAH3_3LqD-106" value="HISTORIAL" style="text;html=1;align=center;verticalAlign=middle;resizable=0;points=[];autosize=1;strokeColor=none;fillColor=none;" parent="1" vertex="1">
                    <mxGeometry x="1030" y="237.5" width="90" height="30" as="geometry"/>
                </mxCell>
                <mxCell id="ibcruFRzmaZoAH3_3LqD-107" style="rounded=0;orthogonalLoop=1;jettySize=auto;html=1;entryX=0.944;entryY=0.167;entryDx=0;entryDy=0;entryPerimeter=0;endArrow=classic;startFill=0;endFill=1;" parent="1" source="ibcruFRzmaZoAH3_3LqD-106" target="ibcruFRzmaZoAH3_3LqD-40" edge="1">
                    <mxGeometry relative="1" as="geometry">
                        <mxPoint x="1020" y="265.5" as="sourcePoint"/>
                    </mxGeometry>
                </mxCell>
                <mxCell id="CdbYqR2ihA_3ERL0Ujwt-2" style="rounded=0;orthogonalLoop=1;jettySize=auto;html=1;endArrow=none;startFill=0;" parent="1" source="CdbYqR2ihA_3ERL0Ujwt-1" target="ibcruFRzmaZoAH3_3LqD-2" edge="1">
                    <mxGeometry relative="1" as="geometry"/>
                </mxCell>
                <mxCell id="CdbYqR2ihA_3ERL0Ujwt-1" value="CONTRASEÑA" style="ellipse;whiteSpace=wrap;html=1;fontStyle=0" parent="1" vertex="1">
                    <mxGeometry x="1040" y="117.5" width="110" height="40" as="geometry"/>
                </mxCell>
                <mxCell id="CdbYqR2ihA_3ERL0Ujwt-4" style="rounded=0;orthogonalLoop=1;jettySize=auto;html=1;entryX=0;entryY=1;entryDx=0;entryDy=0;endArrow=none;startFill=0;" parent="1" source="CdbYqR2ihA_3ERL0Ujwt-3" target="ibcruFRzmaZoAH3_3LqD-40" edge="1">
                    <mxGeometry relative="1" as="geometry"/>
                </mxCell>
                <mxCell id="CdbYqR2ihA_3ERL0Ujwt-3" value="fecha_hora" style="ellipse;whiteSpace=wrap;html=1;" parent="1" vertex="1">
                    <mxGeometry x="775" y="307.5" width="70" height="40" as="geometry"/>
                </mxCell>
                <mxCell id="CdbYqR2ihA_3ERL0Ujwt-7" style="rounded=0;orthogonalLoop=1;jettySize=auto;html=1;endArrow=none;startFill=0;" parent="1" source="CdbYqR2ihA_3ERL0Ujwt-6" target="ibcruFRzmaZoAH3_3LqD-2" edge="1">
                    <mxGeometry relative="1" as="geometry"/>
                </mxCell>
                <mxCell id="CdbYqR2ihA_3ERL0Ujwt-6" value="ESTADO" style="ellipse;whiteSpace=wrap;html=1;fontStyle=0" parent="1" vertex="1">
                    <mxGeometry x="1050" y="167.5" width="80" height="30" as="geometry"/>
                </mxCell>
                <mxCell id="X0XYi1Hsc6SYG7ZAuI2Y-5" style="rounded=0;orthogonalLoop=1;jettySize=auto;html=1;entryX=0.5;entryY=1;entryDx=0;entryDy=0;endArrow=none;startFill=0;" parent="1" source="X0XYi1Hsc6SYG7ZAuI2Y-3" target="ibcruFRzmaZoAH3_3LqD-3" edge="1">
                    <mxGeometry relative="1" as="geometry"/>
                </mxCell>
                <mxCell id="X0XYi1Hsc6SYG7ZAuI2Y-3" value="COSTO ENTRADA" style="ellipse;whiteSpace=wrap;html=1;" parent="1" vertex="1">
                    <mxGeometry x="-310" y="640" width="90" height="40" as="geometry"/>
                </mxCell>
                <mxCell id="X0XYi1Hsc6SYG7ZAuI2Y-4" value="HORARIO APERTURA/CIERE" style="ellipse;whiteSpace=wrap;html=1;" parent="1" vertex="1">
                    <mxGeometry x="-450" y="680" width="135" height="70" as="geometry"/>
                </mxCell>
                <mxCell id="X0XYi1Hsc6SYG7ZAuI2Y-6" style="rounded=0;orthogonalLoop=1;jettySize=auto;html=1;entryX=0.358;entryY=1.017;entryDx=0;entryDy=0;entryPerimeter=0;endArrow=none;startFill=0;" parent="1" source="X0XYi1Hsc6SYG7ZAuI2Y-4" target="ibcruFRzmaZoAH3_3LqD-3" edge="1">
                    <mxGeometry relative="1" as="geometry"/>
                </mxCell>
                <mxCell id="X0XYi1Hsc6SYG7ZAuI2Y-7" style="edgeStyle=orthogonalEdgeStyle;rounded=0;orthogonalLoop=1;jettySize=auto;html=1;endArrow=none;startFill=0;" parent="1" source="ibcruFRzmaZoAH3_3LqD-58" target="ibcruFRzmaZoAH3_3LqD-73" edge="1">
                    <mxGeometry relative="1" as="geometry">
                        <mxPoint x="140" y="453.75" as="targetPoint"/>
                    </mxGeometry>
                </mxCell>
                <mxCell id="5" style="edgeStyle=none;html=1;endArrow=none;endFill=0;" parent="1" source="2" target="4" edge="1">
                    <mxGeometry relative="1" as="geometry"/>
                </mxCell>
                <mxCell id="2" value="HITORIA" style="rounded=1;whiteSpace=wrap;html=1;" parent="1" vertex="1">
                    <mxGeometry x="-330" y="60" width="120" height="60" as="geometry"/>
                </mxCell>
                <mxCell id="6" style="edgeStyle=none;html=1;endArrow=none;endFill=0;" parent="1" source="4" target="ibcruFRzmaZoAH3_3LqD-3" edge="1">
                    <mxGeometry relative="1" as="geometry"/>
                </mxCell>
                <mxCell id="4" value="Histori_PTuriscito" style="shape=associativeEntity;whiteSpace=wrap;html=1;align=center;" parent="1" vertex="1">
                    <mxGeometry x="-340" y="247.5" width="140" height="60" as="geometry"/>
                </mxCell>
                <mxCell id="10" style="edgeStyle=none;html=1;endArrow=none;endFill=0;" parent="1" source="7" target="2" edge="1">
                    <mxGeometry relative="1" as="geometry"/>
                </mxCell>
                <mxCell id="7" value="ESTADO" style="ellipse;whiteSpace=wrap;html=1;" parent="1" vertex="1">
                    <mxGeometry x="-610" y="100" width="70" height="40" as="geometry"/>
                </mxCell>
                <mxCell id="9" style="edgeStyle=none;html=1;endArrow=none;endFill=0;" parent="1" source="8" target="2" edge="1">
                    <mxGeometry relative="1" as="geometry"/>
                </mxCell>
                <mxCell id="8" value="NOMBRE" style="ellipse;whiteSpace=wrap;html=1;" parent="1" vertex="1">
                    <mxGeometry x="-610" y="40" width="70" height="40" as="geometry"/>
                </mxCell>
                <mxCell id="14" style="edgeStyle=none;html=1;endArrow=none;endFill=0;" parent="1" source="13" target="2" edge="1">
                    <mxGeometry relative="1" as="geometry"/>
                </mxCell>
                <mxCell id="13" value="&lt;u&gt;Historia_id&lt;/u&gt;" style="ellipse;whiteSpace=wrap;html=1;" parent="1" vertex="1">
                    <mxGeometry x="-480" y="-10" width="70" height="40" as="geometry"/>
                </mxCell>
                <mxCell id="16" style="edgeStyle=none;html=1;endArrow=none;endFill=0;" parent="1" source="15" target="ibcruFRzmaZoAH3_3LqD-3" edge="1">
                    <mxGeometry relative="1" as="geometry"/>
                </mxCell>
                <mxCell id="15" value="Fecha_de creacion" style="ellipse;whiteSpace=wrap;html=1;" parent="1" vertex="1">
                    <mxGeometry x="-640" y="380" width="130" height="80" as="geometry"/>
                </mxCell>
                <mxCell id="37" style="edgeStyle=none;html=1;endArrow=none;endFill=0;" parent="1" source="17" target="36" edge="1">
                    <mxGeometry relative="1" as="geometry"/>
                </mxCell>
                <mxCell id="17" value="HITO_HISTORICO" style="rounded=1;whiteSpace=wrap;html=1;" parent="1" vertex="1">
                    <mxGeometry x="-60" y="-70" width="120" height="60" as="geometry"/>
                </mxCell>
                <mxCell id="18" value="M" style="text;html=1;align=center;verticalAlign=middle;resizable=0;points=[];autosize=1;strokeColor=none;fillColor=none;" parent="1" vertex="1">
                    <mxGeometry x="-270" y="207.5" width="30" height="30" as="geometry"/>
                </mxCell>
                <mxCell id="19" value="M" style="text;html=1;align=center;verticalAlign=middle;resizable=0;points=[];autosize=1;strokeColor=none;fillColor=none;" parent="1" vertex="1">
                    <mxGeometry x="-270" y="307.5" width="30" height="30" as="geometry"/>
                </mxCell>
                <mxCell id="20" style="edgeStyle=orthogonalEdgeStyle;rounded=0;orthogonalLoop=1;jettySize=auto;html=1;endArrow=none;startFill=0;exitX=0;exitY=0.5;exitDx=0;exitDy=0;" parent="1" source="21" target="2" edge="1">
                    <mxGeometry relative="1" as="geometry">
                        <mxPoint x="-130" y="80" as="targetPoint"/>
                        <mxPoint x="70" y="64.93" as="sourcePoint"/>
                        <Array as="points"/>
                    </mxGeometry>
                </mxCell>
                <mxCell id="21" value="TIENE" style="rhombus;whiteSpace=wrap;html=1;" parent="1" vertex="1">
                    <mxGeometry x="-30" y="50" width="80" height="80" as="geometry"/>
                </mxCell>
                <mxCell id="23" value="1" style="text;html=1;align=center;verticalAlign=middle;resizable=0;points=[];autosize=1;strokeColor=none;fillColor=none;" parent="1" vertex="1">
                    <mxGeometry x="-180" y="105" width="30" height="30" as="geometry"/>
                </mxCell>
                <mxCell id="28" style="edgeStyle=none;html=1;endArrow=none;endFill=0;" parent="1" source="27" target="2" edge="1">
                    <mxGeometry relative="1" as="geometry"/>
                </mxCell>
                <mxCell id="29" style="edgeStyle=none;html=1;endArrow=none;endFill=0;" parent="1" source="27" target="17" edge="1">
                    <mxGeometry relative="1" as="geometry"/>
                </mxCell>
                <mxCell id="27" value="TIENE" style="rhombus;whiteSpace=wrap;html=1;" parent="1" vertex="1">
                    <mxGeometry x="-310" y="-80" width="80" height="80" as="geometry"/>
                </mxCell>
                <mxCell id="31" style="edgeStyle=none;html=1;endArrow=none;endFill=0;" parent="1" source="30" target="17" edge="1">
                    <mxGeometry relative="1" as="geometry"/>
                </mxCell>
                <mxCell id="30" value="&lt;u&gt;HITO_ID&lt;/u&gt;" style="ellipse;whiteSpace=wrap;html=1;" parent="1" vertex="1">
                    <mxGeometry x="-10" y="-170" width="70" height="40" as="geometry"/>
                </mxCell>
                <mxCell id="33" style="edgeStyle=none;html=1;endArrow=none;endFill=0;" parent="1" source="32" target="17" edge="1">
                    <mxGeometry relative="1" as="geometry"/>
                </mxCell>
                <mxCell id="32" value="FECHA" style="ellipse;whiteSpace=wrap;html=1;" parent="1" vertex="1">
                    <mxGeometry x="130" y="-150" width="70" height="40" as="geometry"/>
                </mxCell>
                <mxCell id="35" style="edgeStyle=none;html=1;endArrow=none;endFill=0;" parent="1" source="34" target="17" edge="1">
                    <mxGeometry relative="1" as="geometry"/>
                </mxCell>
                <mxCell id="34" value="DESCRIPCION" style="ellipse;whiteSpace=wrap;html=1;" parent="1" vertex="1">
                    <mxGeometry x="190" y="-110" width="150" height="40" as="geometry"/>
                </mxCell>
                <mxCell id="36" value="ORDEN" style="ellipse;whiteSpace=wrap;html=1;" parent="1" vertex="1">
                    <mxGeometry x="170" y="-40" width="150" height="40" as="geometry"/>
                </mxCell>
                <mxCell id="38" value="1" style="text;html=1;align=center;verticalAlign=middle;resizable=0;points=[];autosize=1;strokeColor=none;fillColor=none;" parent="1" vertex="1">
                    <mxGeometry x="-260" y="17.5" width="30" height="30" as="geometry"/>
                </mxCell>
                <mxCell id="39" value="M" style="text;html=1;align=center;verticalAlign=middle;resizable=0;points=[];autosize=1;strokeColor=none;fillColor=none;" parent="1" vertex="1">
                    <mxGeometry x="-110" y="-80" width="30" height="30" as="geometry"/>
                </mxCell>
                <mxCell id="40" value="1" style="text;html=1;align=center;verticalAlign=middle;resizable=0;points=[];autosize=1;strokeColor=none;fillColor=none;" vertex="1" parent="1">
                    <mxGeometry x="-260" y="400" width="30" height="30" as="geometry"/>
                </mxCell>
                <mxCell id="41" value="1" style="text;html=1;align=center;verticalAlign=middle;resizable=0;points=[];autosize=1;strokeColor=none;fillColor=none;" vertex="1" parent="1">
                    <mxGeometry x="-270" y="122.5" width="30" height="30" as="geometry"/>
                </mxCell>
                <mxCell id="42" value="IMAGEN" style="rounded=1;whiteSpace=wrap;html=1;" vertex="1" parent="1">
                    <mxGeometry x="297" y="70" width="120" height="60" as="geometry"/>
                </mxCell>
                <mxCell id="43" style="rounded=0;orthogonalLoop=1;jettySize=auto;html=1;endArrow=none;startFill=0;" edge="1" parent="1" source="44" target="42">
                    <mxGeometry relative="1" as="geometry"/>
                </mxCell>
                <mxCell id="44" value="ESTADO" style="ellipse;whiteSpace=wrap;html=1;" vertex="1" parent="1">
                    <mxGeometry x="450" y="120" width="70" height="40" as="geometry"/>
                </mxCell>
                <mxCell id="45" style="rounded=0;orthogonalLoop=1;jettySize=auto;html=1;endArrow=none;startFill=0;" edge="1" parent="1" source="46" target="42">
                    <mxGeometry relative="1" as="geometry"/>
                </mxCell>
                <mxCell id="46" value="URL" style="ellipse;whiteSpace=wrap;html=1;" vertex="1" parent="1">
                    <mxGeometry x="322" y="208.75" width="70" height="40" as="geometry"/>
                </mxCell>
                <mxCell id="47" style="rounded=0;orthogonalLoop=1;jettySize=auto;html=1;endArrow=none;startFill=0;" edge="1" parent="1" source="48" target="42">
                    <mxGeometry relative="1" as="geometry"/>
                </mxCell>
                <mxCell id="48" value="FECHA_SUBIDA" style="ellipse;whiteSpace=wrap;html=1;" vertex="1" parent="1">
                    <mxGeometry x="430" y="198.75" width="110" height="50" as="geometry"/>
                </mxCell>
                <mxCell id="49" style="rounded=0;orthogonalLoop=1;jettySize=auto;html=1;endArrow=none;startFill=0;" edge="1" parent="1" source="50" target="42">
                    <mxGeometry relative="1" as="geometry"/>
                </mxCell>
                <mxCell id="50" value="&lt;u&gt;IMG_ID&lt;/u&gt;" style="ellipse;whiteSpace=wrap;html=1;" vertex="1" parent="1">
                    <mxGeometry x="180" y="193.75" width="110" height="55" as="geometry"/>
                </mxCell>
                <mxCell id="51" value="M" style="text;html=1;align=center;verticalAlign=middle;resizable=0;points=[];autosize=1;strokeColor=none;fillColor=none;" vertex="1" parent="1">
                    <mxGeometry x="200" y="60" width="30" height="30" as="geometry"/>
                </mxCell>
                <mxCell id="52" style="edgeStyle=none;html=1;endArrow=none;endFill=0;" edge="1" parent="1" source="21" target="42">
                    <mxGeometry relative="1" as="geometry"/>
                </mxCell>
            </root>
        </mxGraphModel>
    </diagram>
</mxfile>